Dead.End.2012.DVDRip.x264.AAC-OFFLiNE

General
Complete name                            : Dead End 2012 DVDRip x264 AAC-OFFLiNE.mp4
Format                                   : MPEG-4
Format profile                           : Base Media
Codec ID                                 : isom
File size                                : 1.42 GiB
Duration                                 : 1h 22mn
Overall bit rate mode                    : Variable
Overall bit rate                         : 2 468 Kbps
Encoded date                             : UTC 2013-02-23 07:37:49
Tagged date                              : UTC 2013-02-23 07:37:49

Video
ID                                       : 1
Format                                   : AVC
Format/Info                              : Advanced Video Codec
Format profile                           : High@L4.1
Format settings, CABAC                   : Yes
Format settings, ReFrames                : 3 frames
Codec ID                                 : avc1
Codec ID/Info                            : Advanced Video Coding
Duration                                 : 1h 22mn
Bit rate mode                            : Variable
Bit rate                                 : 2 131 Kbps
Maximum bit rate                         : 40.0 Mbps
Width                                    : 720 pixels
Height                                   : 304 pixels
Display aspect ratio                     : 2.35:1
Frame rate mode                          : Constant
Frame rate                               : 25.000 fps
Color space                              : YUV
Chroma subsampling                       : 4:2:0
Bit depth                                : 8 bits
Scan type                                : Progressive
Bits/(Pixel*Frame)                       : 0.389
Stream size                              : 1.23 GiB (86%)
Writing library                          : x264 core 129 r2245 bc13772

Audio
ID                                       : 2
Format                                   : AAC
Format/Info                              : Advanced Audio Codec
Format profile                           : LC
Codec ID                                 : 40
Duration                                 : 1h 22mn
Bit rate mode                            : Variable
Bit rate                                 : 334 Kbps
Maximum bit rate                         : 376 Kbps
Channel(s)                               : 6 channels
Channel positions                        : Front: L C R, Side: L R, LFE
Sampling rate                            : 48.0 KHz
Compression mode                         : Lossy
Stream size                              : 197 MiB (14%)
Language                                 : English
Encoded date                             : UTC 2013-02-23 06:00:27
Tagged date                              : UTC 2013-02-23 07:38:31

IMDB: http://www.imdb.com/title/tt2393817/

Cast: Jamie Foreman, Wil Johnson, Jon Campling

Plot: Carl Foster takes off on a well-deserved weekend break with his family knowing only too well that focus on work has impacted his relationship with his wife, young son, and teenage step-daughter. But after a short but restful break in the journey Carl awakens to find himself tied and bound in an old roadside diner, his family trussed and gagged next to him, and a disparate group of dirty, dishevelled, vagrant-like undesirables keeping them captive. Only time will reveal who they are and what they want, but things are not everything they might seem 


Screens:
 
http://www.shotpix.com/images/91585227810723875687.png
 
http://www.shotpix.com/images/40629440446607578640.png
 
http://www.shotpix.com/images/00221794053764782073.png
 
http://www.shotpix.com/images/49029558786461139771.png
 
http://www.shotpix.com/images/32946897347152455349.png

